<svg width="32" height="20" viewBox="0 0 32 20" fill="none" xmlns="http://www.w3.org/2000/svg">
<path d="M20.101 2.342H11.8987V17.0813H20.101V2.342Z" fill="#FF5F00"/>
<path d="M12.4196 9.71164C12.4183 8.29214 12.74 6.89095 13.3603 5.61414C13.9806 4.33734 14.8832 3.21839 15.9999 2.342C14.617 1.25507 12.9563 0.579129 11.2074 0.391427C9.45853 0.203725 7.69213 0.511832 6.1101 1.28055C4.52807 2.04926 3.19423 3.24756 2.26105 4.73848C1.32787 6.2294 0.833008 7.95277 0.833008 9.71164C0.833008 11.4705 1.32787 13.1939 2.26105 14.6848C3.19423 16.1757 4.52807 17.374 6.1101 18.1427C7.69213 18.9114 9.45853 19.2195 11.2074 19.0318C12.9563 18.8441 14.617 18.1682 15.9999 17.0813C14.8832 16.2049 13.9806 15.0859 13.3603 13.8091C12.74 12.5323 12.4183 11.1311 12.4196 9.71164Z" fill="#EB001B"/>
<path d="M31.1663 9.71163C31.1664 11.4705 30.6716 13.1938 29.7385 14.6848C28.8053 16.1757 27.4715 17.374 25.8895 18.1427C24.3075 18.9114 22.5412 19.2195 20.7923 19.0318C19.0435 18.8441 17.3827 18.1682 15.9999 17.0813C17.1156 16.204 18.0176 15.0849 18.6378 13.8083C19.258 12.5317 19.5802 11.1309 19.5802 9.71163C19.5802 8.29236 19.258 6.89161 18.6378 5.61501C18.0176 4.3384 17.1156 3.21928 15.9999 2.342C17.3827 1.25507 19.0435 0.579124 20.7923 0.391424C22.5412 0.203724 24.3075 0.511845 25.8895 1.28057C27.4715 2.04929 28.8053 3.24759 29.7385 4.73851C30.6716 6.22943 31.1664 7.9528 31.1663 9.71163Z" fill="#F79E1B"/>
</svg>
