<svg width="52" height="13" viewBox="0 0 52 13" fill="none" xmlns="http://www.w3.org/2000/svg">
<path d="M19.7045 5.59066C19.5727 6.579 18.7821 6.579 18.0573 6.579H17.6619L17.9914 4.6682C17.9914 4.53642 18.1232 4.47054 18.2549 4.47054H18.4526C18.9797 4.47054 19.441 4.47054 19.7045 4.73409C19.7045 4.99765 19.7045 5.26121 19.7045 5.59066ZM19.3751 2.95508H16.5418C16.3442 2.95508 16.2124 3.08686 16.1465 3.28453L15.0264 10.5324C15.0264 10.6641 15.0923 10.7959 15.2899 10.7959H16.6077C16.8054 10.7959 16.9372 10.6641 17.0031 10.4665L17.3325 8.4898C17.3325 8.29213 17.5302 8.16035 17.7278 8.16035H18.6503C20.4952 8.16035 21.5494 7.23789 21.8789 5.45888C22.0106 4.6682 21.8789 4.0752 21.5494 3.61397C21.0223 3.21864 20.2975 2.95508 19.3751 2.95508Z" fill="#263577"/>
<path d="M25.8985 8.22634C25.7667 9.01702 25.1737 9.54413 24.383 9.54413C23.9877 9.54413 23.6583 9.41235 23.4606 9.1488C23.2629 8.88524 23.197 8.55579 23.2629 8.22634C23.3947 7.43567 23.9877 6.90855 24.7784 6.90855C25.1737 6.90855 25.5032 7.04033 25.7008 7.30389C25.8326 7.50156 25.9644 7.83101 25.8985 8.22634ZM27.7434 5.59076H26.4256C26.2938 5.59076 26.2279 5.65665 26.162 5.78843L26.0962 6.18377L26.0303 6.05199C25.7667 5.65665 25.1078 5.45898 24.4489 5.45898C22.9335 5.45898 21.6816 6.57911 21.418 8.16045C21.2862 8.95113 21.4839 9.67591 21.9451 10.203C22.3405 10.6643 22.9335 10.8619 23.6582 10.8619C24.8443 10.8619 25.5031 10.0713 25.5031 10.0713L25.4373 10.4666C25.4373 10.5984 25.5032 10.7301 25.7008 10.7301H26.8868C27.0845 10.7301 27.2163 10.5984 27.2822 10.4007L28.007 5.78843C28.007 5.72254 27.9411 5.59076 27.7434 5.59076Z" fill="#263577"/>
<path d="M34.9255 5.5918H33.5418C33.41 5.5918 33.2782 5.65769 33.2123 5.78946L31.3674 8.55682L30.5768 5.92124C30.5109 5.72358 30.3791 5.65769 30.1814 5.65769H28.8636C28.7318 5.65769 28.6001 5.78946 28.666 5.98713L30.1814 10.3358L28.7977 12.3125C28.666 12.4443 28.7977 12.7079 28.9954 12.7079H30.3791C30.5109 12.7079 30.6427 12.642 30.7085 12.5102L35.189 5.98713C35.2549 5.78946 35.1231 5.5918 34.9255 5.5918Z" fill="#263577"/>
<path d="M39.7348 5.59066C39.603 6.579 38.8123 6.579 38.0876 6.579H37.6922L38.0217 4.6682C38.0217 4.53642 38.1535 4.47054 38.2852 4.47054H38.4829C39.01 4.47054 39.4712 4.47054 39.7348 4.73409C39.8007 4.99765 39.8007 5.26121 39.7348 5.59066ZM39.4053 2.95508H36.5721C36.3744 2.95508 36.2427 3.08686 36.1768 3.28453L35.0566 10.5324C35.0566 10.6641 35.1225 10.7959 35.3202 10.7959H36.7698C36.9015 10.7959 37.0333 10.73 37.0333 10.5324L37.3628 8.4898C37.3628 8.29213 37.5604 8.16035 37.7581 8.16035H38.6806C40.5255 8.16035 41.5797 7.23789 41.9092 5.45888C42.0409 4.6682 41.9092 4.0752 41.5797 3.61397C41.1185 3.21864 40.3937 2.95508 39.4053 2.95508Z" fill="#2199D6"/>
<path d="M45.9942 8.22634C45.8624 9.01702 45.2694 9.54413 44.4787 9.54413C44.0834 9.54413 43.754 9.41235 43.5563 9.1488C43.3586 8.88524 43.2927 8.55579 43.3586 8.22634C43.4904 7.43567 44.0834 6.90855 44.8741 6.90855C45.2694 6.90855 45.5989 7.04033 45.7965 7.30389C45.9283 7.50156 46.0601 7.83101 45.9942 8.22634ZM47.8391 5.59076H46.5213C46.3895 5.59076 46.3236 5.65665 46.2577 5.78843L46.1919 6.18377L46.126 6.05199C45.8624 5.65665 45.2035 5.45898 44.5446 5.45898C43.0292 5.45898 41.7773 6.57911 41.5137 8.16045C41.3819 8.95113 41.5796 9.67591 42.0408 10.203C42.4362 10.6643 43.0292 10.8619 43.7539 10.8619C44.94 10.8619 45.5988 10.0713 45.5988 10.0713L45.533 10.4666C45.533 10.5984 45.5989 10.7301 45.7965 10.7301H46.9825C47.1802 10.7301 47.312 10.5984 47.3779 10.4007L48.1027 5.78843C48.1027 5.72254 47.9709 5.59076 47.8391 5.59076Z" fill="#2199D6"/>
<path d="M49.4204 3.15275L48.2344 10.5324C48.2344 10.6641 48.3003 10.7959 48.4979 10.7959H49.684C49.8816 10.7959 50.0134 10.6641 50.0793 10.4665L51.1994 3.21864C51.1994 3.08686 51.1335 2.95508 50.9358 2.95508H49.6181C49.5522 2.95508 49.4863 3.08686 49.4204 3.15275Z" fill="#2199D6"/>
<path d="M3.29821 12.1791L3.49587 10.7954H3.03465H0.728516L2.30987 0.714326C2.30987 0.714326 2.30986 0.648438 2.37575 0.648438H2.44165H6.32912C7.58102 0.648438 8.50347 0.911996 8.9647 1.43911C9.16237 1.70267 9.29415 1.96623 9.36004 2.22979C9.42593 2.55923 9.42593 2.88868 9.36004 3.34991V3.61346L9.55771 3.74524C9.75538 3.81113 9.88716 3.94291 10.0189 4.07469C10.2166 4.27236 10.3484 4.53592 10.3484 4.86537C10.4143 5.19481 10.4143 5.59015 10.2825 6.05138C10.1507 6.57849 10.0189 6.97383 9.82126 7.36916C9.6236 7.69861 9.36003 7.96217 9.09648 8.22573C8.83292 8.4234 8.43758 8.55517 8.10813 8.68695C7.7128 8.75284 7.31746 8.81873 6.85624 8.81873H6.52679C6.32912 8.81873 6.13146 8.88462 5.93379 9.0164C5.80201 9.14818 5.67023 9.34585 5.60434 9.54352V9.67529L5.209 12.1132V12.1791V12.245C5.209 12.245 5.209 12.245 5.14311 12.245H3.29821V12.1791Z" fill="#263577"/>
<path d="M9.82074 3.35156C9.82074 3.41745 9.82074 3.48334 9.75485 3.54923C9.22773 6.18481 7.51461 7.04137 5.27437 7.04137H4.15424C3.89068 7.04137 3.62713 7.23904 3.62713 7.5026L3.03412 11.1924L2.90234 12.2466C2.90234 12.4443 3.03412 12.5761 3.1659 12.5761H5.20848C5.47203 12.5761 5.6697 12.3784 5.6697 12.1808V12.049L6.06504 9.67695V9.54517C6.13093 9.28162 6.3286 9.14984 6.52627 9.14984H6.85571C8.8324 9.14984 10.3479 8.35916 10.7432 6.05303C10.9409 5.06469 10.8091 4.27402 10.3479 3.7469C10.2161 3.61512 10.0184 3.48334 9.82074 3.35156Z" fill="#2199D6"/>
<path d="M9.29442 3.15275C9.22853 3.15275 9.16264 3.08686 9.03087 3.08686C8.96498 3.08686 8.83319 3.02097 8.7673 3.02097C8.43785 2.95508 8.10841 2.95508 7.77896 2.95508H4.74805C4.68216 2.95508 4.61627 2.95508 4.55038 3.02097C4.4186 3.08686 4.28682 3.21864 4.28682 3.35041L3.62793 7.43557V7.56734C3.69382 7.30378 3.89148 7.10612 4.15504 7.10612H5.27517C7.51541 7.10612 9.22853 6.18366 9.75564 3.61397C9.75564 3.54808 9.75565 3.48219 9.82154 3.41631C9.68976 3.35042 9.55798 3.28453 9.4262 3.21864C9.36031 3.15275 9.29442 3.15275 9.29442 3.15275Z" fill="#252C5E"/>
<path d="M4.28638 3.35071C4.28638 3.21893 4.41815 3.08715 4.54993 3.02126C4.61582 3.02126 4.68171 2.95537 4.7476 2.95537H7.77851C8.10796 2.95537 8.50329 2.95537 8.76685 3.02126C8.83274 3.02126 8.96453 3.02126 9.03042 3.08715C9.09631 3.08715 9.16219 3.15304 9.29397 3.15304C9.35986 3.15304 9.35986 3.15304 9.42575 3.21893C9.55753 3.28482 9.68931 3.35071 9.82109 3.4166C9.95287 2.42826 9.82109 1.76936 9.29397 1.17636C8.70097 0.517463 7.64673 0.253906 6.32894 0.253906H2.44147C2.17791 0.253906 1.91435 0.451573 1.91435 0.715131L0.333008 10.8621C0.333008 11.0598 0.464787 11.2574 0.662455 11.2574H3.03447L3.62748 7.43586L4.28638 3.35071Z" fill="#263577"/>
</svg>
