<svg width="38" height="13" viewBox="0 0 38 13" fill="none" xmlns="http://www.w3.org/2000/svg">
<path fill-rule="evenodd" clip-rule="evenodd" d="M9.66671 12.4255H6.43575L4.01293 2.91041C3.89793 2.47272 3.65376 2.08577 3.29459 1.9034C2.39824 1.44509 1.41052 1.08035 0.333008 0.896389V0.530058H5.53783C6.25617 0.530058 6.79492 1.08035 6.88472 1.71944L8.14181 8.58298L11.3712 0.530058H14.5124L9.66671 12.4255ZM16.3077 12.4255H13.2563L15.7689 0.530058H18.8203L16.3077 12.4255ZM22.7694 3.82364C22.8592 3.18296 23.3979 2.81663 24.0265 2.81663C25.0142 2.72465 26.0901 2.90861 26.988 3.36533L27.5268 0.804194C26.6289 0.437864 25.6411 0.253906 24.7448 0.253906C21.7832 0.253906 19.6282 1.9016 19.6282 4.18839C19.6282 5.92806 21.1547 6.84151 22.2322 7.39179C23.3979 7.9405 23.8469 8.30683 23.7571 8.85553C23.7571 9.67858 22.8591 10.0449 21.9628 10.0449C20.8853 10.0449 19.8078 9.77056 18.8216 9.31225L18.2829 11.875C19.3604 12.3317 20.5261 12.5157 21.6036 12.5157C24.9244 12.6061 26.988 10.9599 26.988 8.4892C26.988 5.37777 22.7694 5.1954 22.7694 3.82364ZM37.6651 12.4255L35.2423 0.530058H32.6399C32.1012 0.530058 31.5624 0.896389 31.3828 1.44509L26.8963 12.4255H30.0375L30.6645 10.6874H34.524L34.8832 12.4255H37.6651ZM33.0893 3.73218L33.9856 8.21536H31.473L33.0893 3.73218Z" fill="#172B85"/>
</svg>
